<svg xmlns="http://www.w3.org/2000/svg" version="1.1" xmlns:xlink="http://www.w3.org/1999/xlink" xmlns:svgjs="http://svgjs.com/svgjs" width="1480" height="603" preserveAspectRatio="none" viewBox="0 0 1480 603"><g mask="url(&quot;#SvgjsMask1009&quot;)" fill="none"><path d="M150.89 708.89C296.42 691.64 379.41 368.56 626.36 366.03 873.3 363.5 864.09 441.41 1101.82 441.4 1339.56 441.4 1456.94 366.26 1577.29 366.03" stroke="rgba(243, 209, 234, 1)" stroke-width="2"></path><path d="M548.37 688.51C693.18 613.95 624.57 138.9 893.78 136.1 1162.98 133.3 1400.17 391.17 1584.59 395.39" stroke="rgba(243, 209, 234, 1)" stroke-width="2"></path><path d="M233.85 648.37C455.12 610.17 563.65 66.29 915.5 63.52 1267.35 60.75 1416.91 295.42 1597.15 298.69" stroke="rgba(243, 209, 234, 1)" stroke-width="2"></path><path d="M565.12 655.39C738.14 617.59 808.48 166.98 1074.97 163.55 1341.46 160.12 1449.6 341.8 1584.82 344.45" stroke="rgba(243, 209, 234, 1)" stroke-width="2"></path><path d="M311.11 612.76C472.68 607.88 581 376.82 908.15 364.61 1235.31 352.4 1339.49 82.67 1505.2 75.17" stroke="rgba(243, 209, 234, 1)" stroke-width="2"></path></g><defs><mask id="SvgjsMask1009"><rect width="1480" height="603" fill="#ffffff"></rect></mask></defs></svg>